<svg width="61" height="60" viewBox="0 0 61 60" fill="none" xmlns="http://www.w3.org/2000/svg">
<rect x="0.5" width="60" height="60" rx="6" fill="#F9FCFF"/>
<g clip-path="url(#clip0_77_974)">
<path d="M32.6503 30.2736C32.6503 25.1616 32.6557 20.0496 32.6423 14.9381C32.6413 14.4363 32.9239 14.1045 33.3101 14.0048C33.5762 13.936 33.8391 14.0533 34.0887 14.1221C35.4941 14.5099 36.8925 14.9237 38.2946 15.3243C40.2695 15.888 42.2439 16.4512 44.221 17.008C44.7229 17.1493 44.9853 17.4747 44.9959 18.04C45.0029 18.4075 44.997 18.7749 44.997 19.1419C44.997 27.3925 44.9986 35.6427 44.9901 43.8933C44.9895 44.1664 45.0477 44.2469 45.3271 44.2336C45.7165 44.2149 46.1117 44.2443 46.3421 44.648C46.6866 45.2512 46.3517 45.9472 45.6909 45.9728C44.3389 46.0251 42.9831 45.9856 41.6295 45.9931C41.4381 45.9941 41.4695 45.8832 41.4695 45.7707C41.4695 44.784 41.4695 43.7973 41.4695 42.8107C41.4695 42.1285 41.4781 41.4459 41.4663 40.7637C41.4594 40.3771 41.3885 40.0043 40.9863 39.8117C40.8013 39.7232 40.5997 39.6901 40.3949 39.6901C39.3138 39.6891 38.2327 39.6965 37.1517 39.6869C36.573 39.6816 36.1554 40.0592 36.1671 40.6688C36.1991 42.3477 36.1725 44.0277 36.1847 45.7072C36.1863 45.9456 36.1255 45.9989 35.893 45.9957C34.9063 45.9813 33.9197 45.9808 32.933 45.9963C32.6941 46 32.6445 45.9365 32.645 45.7045C32.6519 40.56 32.6503 35.4171 32.6503 30.2736ZM37.9421 21.224C37.9421 20.9941 37.9522 20.8053 37.9399 20.6176C37.9021 20.0373 37.8045 19.6971 37.1261 19.5616C36.7197 19.4805 36.1933 19.8277 36.1821 20.2411C36.1661 20.8373 36.1682 21.4347 36.1821 22.0315C36.1917 22.4363 36.5757 22.7808 36.981 22.8091C37.3757 22.8363 37.8413 22.472 37.8935 22.1093C37.9378 21.7979 37.9261 21.4912 37.9421 21.224ZM41.4695 21.2261C41.4695 20.9915 41.4807 20.8021 41.4674 20.6149C41.4263 20.0405 41.3447 19.7029 40.6514 19.5605C40.2461 19.4773 39.7202 19.8299 39.7095 20.2437C39.6946 20.84 39.6957 21.4373 39.7101 22.0341C39.7197 22.4389 40.1053 22.7808 40.5117 22.8096C40.8925 22.8368 41.3698 22.4757 41.4221 22.1067C41.4663 21.7952 41.4509 21.488 41.4695 21.2261ZM36.1789 26.1573C36.1789 26.4608 36.1687 26.7653 36.1815 27.0683C36.1986 27.4741 36.5725 27.8299 36.9789 27.8459C37.4333 27.8635 37.8231 27.5589 37.8834 27.1499C37.9757 26.5227 37.9757 25.8965 37.8834 25.2693C37.8242 24.8683 37.4205 24.536 36.981 24.5755C36.5271 24.616 36.1874 24.9248 36.1805 25.3723C36.1757 25.6336 36.1794 25.8955 36.1789 26.1573ZM39.7069 26.1691C39.7069 26.4624 39.6994 26.7557 39.7085 27.0485C39.7213 27.4587 40.0829 27.8149 40.4866 27.848C40.9138 27.8827 41.3735 27.5179 41.4157 27.1392C41.4845 26.52 41.5079 25.9061 41.4093 25.2891C41.3399 24.856 40.9415 24.5301 40.4962 24.5733C39.9986 24.6213 39.6669 25.048 39.7021 25.416C39.7261 25.6645 39.7069 25.9173 39.7069 26.1691ZM36.1794 31.2245C36.1794 31.5072 36.1735 31.7899 36.181 32.0725C36.1922 32.5029 36.5533 32.8677 36.9751 32.8853C37.4482 32.9051 37.8077 32.6128 37.8813 32.1621C37.9815 31.5451 37.973 30.9296 37.8829 30.3125C37.8231 29.9035 37.4322 29.5771 36.9847 29.616C36.5474 29.6544 36.2002 29.9243 36.1815 30.408C36.1703 30.68 36.1794 30.9525 36.1794 31.2245ZM39.7069 31.2149C39.7069 31.5083 39.6989 31.8016 39.709 32.0944C39.7234 32.504 40.0882 32.8549 40.493 32.888C40.893 32.9205 41.3746 32.5648 41.4167 32.1723C41.4839 31.5525 41.5042 30.9392 41.4093 30.3221C41.3442 29.8971 40.9271 29.5627 40.4898 29.6128C39.9949 29.6693 39.6845 30.0667 39.7037 30.4299C39.7181 30.6907 39.7069 30.9531 39.7069 31.2149ZM36.1794 36.2475C36.1794 36.5408 36.1719 36.8341 36.181 37.1269C36.1938 37.5376 36.5538 37.8939 36.9581 37.9269C37.3879 37.9616 37.8455 37.5963 37.8877 37.2187C37.957 36.5995 37.9799 35.9856 37.8813 35.3685C37.8119 34.9349 37.4151 34.6096 36.9693 34.6523C36.4722 34.6997 36.1394 35.1253 36.1746 35.4944C36.1981 35.7429 36.1789 35.9963 36.1794 36.2475ZM39.7069 36.2427C39.7069 36.536 39.6999 36.8293 39.7085 37.1221C39.7207 37.5488 40.0898 37.8987 40.5122 37.9285C40.8903 37.9547 41.3767 37.5968 41.4173 37.224C41.4861 36.5941 41.5026 35.9701 41.4114 35.3424C41.3538 34.9472 40.9346 34.6059 40.5026 34.6549C40.0477 34.7067 39.7415 34.9701 39.7101 35.4261C39.6914 35.6971 39.7069 35.9701 39.7069 36.2427Z" fill="#224D6D"/>
<path d="M30.8861 31.5082C30.8861 36.2213 30.8829 40.9344 30.8941 45.648C30.8946 45.9461 30.8071 46.0112 30.533 45.9947C30.1458 45.9717 29.7559 45.9744 29.3682 45.9947C29.149 46.0059 29.1165 45.9237 29.1175 45.7301C29.1255 44.4181 29.1213 43.1061 29.1223 41.7936C29.1223 41.577 29.0871 41.3674 28.9949 41.1722C28.8162 40.7952 28.4653 40.7061 28.101 40.7018C26.9778 40.689 25.8546 40.6949 24.7314 40.6986C24.189 40.7008 23.8109 41.0986 23.821 41.6224C23.8477 42.9866 23.8247 44.3514 23.8354 45.7162C23.837 45.9301 23.7938 45.9952 23.5666 45.9947C20.8477 45.9856 18.1293 45.9893 15.4103 45.9883C14.8855 45.9883 14.5405 45.6443 14.5026 45.1536C14.4637 44.6533 14.8295 44.248 15.3741 44.2277C15.6989 44.216 16.0247 44.2181 16.3501 44.2277C16.4903 44.232 16.5266 44.1861 16.5255 44.0496C16.5191 43.3461 16.5213 42.6432 16.5245 41.9397C16.525 41.8309 16.4866 41.8016 16.3815 41.7536C15.3362 41.2762 14.7618 40.0741 14.9975 39.0069C15.1362 38.3786 15.1741 37.728 15.2647 37.0885C15.3607 36.4101 15.4669 35.7328 15.5655 35.0544C15.6359 34.568 15.7266 34.0821 15.7629 33.593C15.8135 32.905 16.5549 32.1701 17.2983 32.1669C18.4957 32.1626 18.973 33.0197 19.0514 33.8794C19.1127 34.5504 19.2535 35.2138 19.3437 35.8826C19.4066 36.3498 19.4781 36.8154 19.5415 37.2821C19.6215 37.8709 19.7383 38.456 19.7917 39.0458C19.8951 40.1984 19.6482 41.0032 18.4685 41.704C18.3554 41.7712 18.2797 41.8192 18.2823 41.9754C18.2941 42.6576 18.293 43.3402 18.2829 44.0224C18.2802 44.1925 18.3351 44.2293 18.4951 44.2283C19.6183 44.2218 20.7415 44.2213 21.8647 44.2288C22.0349 44.2298 22.0898 44.177 22.0685 44.0165C22.0605 43.9546 22.0669 43.8906 22.0669 43.8277C22.0669 35.2202 22.0722 26.6122 22.0562 18.0048C22.0551 17.3669 22.4701 17.0042 23.0562 17.0064C25.1031 17.0154 27.1501 17.0096 29.197 17.0096C29.6589 17.0096 30.1213 17.0229 30.5826 17.0042C30.8199 16.9946 30.8946 17.0501 30.8935 17.305C30.8818 19.3413 30.8866 21.3781 30.8866 23.4144C30.8861 26.113 30.8861 28.8106 30.8861 31.5082ZM23.8322 22.152C23.8322 22.4346 23.8263 22.7173 23.8338 23C23.8445 23.4293 24.2071 23.7834 24.6269 23.8176C24.9922 23.8469 25.5021 23.5018 25.5442 23.0928C25.6077 22.4725 25.6263 21.8592 25.5357 21.2426C25.4754 20.8304 25.0898 20.5072 24.6391 20.545C24.2034 20.5818 23.8551 20.8485 23.8343 21.336C23.8226 21.6069 23.8317 21.8794 23.8322 22.152ZM29.1223 22.2256C29.1223 21.9994 29.1314 21.8208 29.1207 21.6437C29.0839 21.0506 29.0055 20.6986 28.2946 20.5685C27.8285 20.4832 27.3954 20.8176 27.3677 21.2618C27.3309 21.8565 27.3463 22.4554 27.3634 23.0517C27.3751 23.4576 27.7655 23.792 28.1746 23.8165C28.5543 23.8394 29.021 23.4794 29.0754 23.104C29.1207 22.7925 29.0978 22.4858 29.1223 22.2256ZM23.8317 27.1829C23.8317 27.4762 23.8237 27.7696 23.8338 28.0624C23.8482 28.472 24.213 28.8229 24.6178 28.856C25.0183 28.8885 25.4994 28.5328 25.5415 28.1402C25.6082 27.5205 25.6295 26.9072 25.5346 26.2901C25.469 25.8645 25.0535 25.5306 24.6157 25.5808C24.1213 25.6373 23.8109 26.033 23.8295 26.3978C23.8429 26.6586 23.8322 26.921 23.8317 27.1829ZM29.1223 27.2602C29.1223 27.0336 29.1325 26.8549 29.1207 26.6778C29.0818 26.0896 29.0114 25.7381 28.2898 25.6069C27.8375 25.5248 27.397 25.8448 27.3677 26.3077C27.3309 26.8917 27.3506 27.48 27.3623 28.0661C27.3703 28.4741 27.7447 28.8234 28.1485 28.8565C28.5373 28.888 29.0215 28.5328 29.0754 28.1386C29.1186 27.8266 29.0967 27.5194 29.1223 27.2602ZM23.8322 32.2165C23.8322 32.5098 23.8247 32.8032 23.8338 33.096C23.8466 33.5056 24.2087 33.8624 24.6119 33.8949C25.0391 33.9296 25.4983 33.5648 25.541 33.1856C25.6103 32.5664 25.6333 31.9525 25.5346 31.3354C25.4653 30.9029 25.0663 30.577 24.6215 30.6197C24.1234 30.6677 23.7922 31.0949 23.8274 31.4629C23.8514 31.7125 23.8317 31.9653 23.8322 32.2165ZM27.3597 32.2154C27.3597 32.5088 27.3522 32.8021 27.3613 33.0949C27.3741 33.5061 27.7335 33.8624 28.1383 33.8949C28.5709 33.9296 29.0258 33.5632 29.0685 33.1872C29.1389 32.568 29.1613 31.9541 29.0621 31.337C28.9922 30.9029 28.597 30.5781 28.1506 30.6202C27.6541 30.6672 27.3207 31.0917 27.3554 31.4618C27.3783 31.7109 27.3597 31.9642 27.3597 32.2154ZM25.5949 37.3338C25.5949 37.0965 25.6082 36.9072 25.5922 36.72C25.5463 36.1674 25.4685 35.8266 24.7847 35.6933C24.2743 35.5936 23.8487 36.0042 23.8359 36.3925C23.8173 36.968 23.8258 37.5445 23.8338 38.12C23.8402 38.5493 24.2066 38.9029 24.6269 38.937C24.989 38.9664 25.4994 38.6208 25.5485 38.2122C25.5858 37.9002 25.5682 37.593 25.5949 37.3338ZM27.3602 37.2714C27.3602 37.5541 27.3543 37.8368 27.3618 38.1194C27.373 38.5493 27.7351 38.9024 28.1554 38.9365C28.5181 38.9658 29.0306 38.6208 29.0722 38.2106C29.1351 37.5898 29.1538 36.977 29.0637 36.36C29.0034 35.9493 28.6157 35.6245 28.1661 35.6629C27.7293 35.7002 27.3815 35.9696 27.3623 36.4544C27.3506 36.7269 27.3597 36.9994 27.3602 37.2714Z" fill="#224D6D"/>
<path d="M37.9416 43.7221C37.9416 43.04 37.9475 42.3573 37.9374 41.6752C37.9347 41.4992 37.98 41.4432 38.1608 41.4485C38.612 41.4613 39.0638 41.4587 39.515 41.4496C39.6648 41.4464 39.7096 41.488 39.7091 41.6411C39.7032 43.0267 39.7038 44.4123 39.7091 45.7979C39.7096 45.9467 39.6718 45.9957 39.5182 45.992C39.067 45.9819 38.6152 45.9803 38.164 45.9925C37.9875 45.9973 37.9347 45.9488 37.9379 45.7685C37.948 45.0869 37.9416 44.4043 37.9416 43.7221Z" fill="#224D6D"/>
<path d="M25.5943 44.2544C25.5943 43.7296 25.6023 43.2048 25.5901 42.68C25.5858 42.4992 25.6413 42.4517 25.8167 42.4565C26.2573 42.4688 26.6983 42.4634 27.1389 42.4586C27.2791 42.457 27.365 42.4602 27.3629 42.6517C27.3522 43.7013 27.3543 44.7509 27.3613 45.8005C27.3623 45.9541 27.3159 45.9946 27.1666 45.9914C26.7047 45.9824 26.2429 45.9818 25.781 45.992C25.6263 45.9952 25.5879 45.9456 25.5901 45.7973C25.5997 45.2832 25.5943 44.769 25.5943 44.2544Z" fill="#224D6D"/>
</g>
<defs>
<clipPath id="clip0_77_974">
<rect width="32" height="32" fill="white" transform="translate(14.5 14)"/>
</clipPath>
</defs>
</svg>
