<svg width="73" height="72" viewBox="0 0 73 72" fill="none" xmlns="http://www.w3.org/2000/svg">
<path d="M61.4203 10.5512C54.7097 3.82461 45.773 0.125 36.2757 0.125C16.6726 0.125 0.721045 16.0766 0.721045 35.6797C0.721045 41.9418 2.35464 48.0598 5.46167 53.457L0.416748 71.875L19.2671 66.9262C24.4562 69.7609 30.3019 71.2504 36.2597 71.2504H36.2757C55.8628 71.2504 72.1667 55.2988 72.1667 35.6957C72.1667 26.1984 68.1308 17.2777 61.4203 10.5512ZM36.2757 65.2606C30.9585 65.2606 25.7535 63.8352 21.221 61.1445L20.148 60.5039L8.96909 63.4348L11.948 52.5281L11.2433 51.407C8.28042 46.6984 6.7269 41.2691 6.7269 35.6797C6.7269 19.3918 19.9878 6.13086 36.2917 6.13086C44.1875 6.13086 51.6027 9.20586 57.1761 14.7953C62.7496 20.3848 66.1769 27.8 66.1609 35.6957C66.1609 51.9996 52.5636 65.2606 36.2757 65.2606ZM52.4835 43.127C51.6027 42.6785 47.2304 40.5324 46.4136 40.2441C45.5968 39.9398 45.0042 39.7957 44.4117 40.6926C43.8191 41.5895 42.1214 43.5754 41.5929 44.184C41.0804 44.7766 40.5519 44.8566 39.671 44.4082C34.45 41.7977 31.0226 39.7477 27.5792 33.8379C26.6664 32.2684 28.4921 32.3805 30.1898 28.9852C30.4781 28.3926 30.3339 27.8801 30.1097 27.4316C29.8855 26.9832 28.1078 22.6109 27.371 20.8332C26.6503 19.1035 25.9136 19.3438 25.3691 19.3117C24.8566 19.2797 24.264 19.2797 23.6714 19.2797C23.0789 19.2797 22.1179 19.5039 21.3011 20.3848C20.4843 21.2816 18.1941 23.4277 18.1941 27.8C18.1941 32.1723 21.3812 36.4004 21.8136 36.993C22.2621 37.5855 28.0757 46.5543 36.9964 50.4141C42.6339 52.8484 44.8441 53.0566 47.6628 52.6402C49.3765 52.384 52.916 50.4941 53.6527 48.4121C54.3894 46.3301 54.3894 44.5523 54.1652 44.184C53.957 43.7836 53.3644 43.5594 52.4835 43.127Z" fill="white"/>
</svg>
