<svg width="22" height="21" viewBox="0 0 22 21" fill="none" xmlns="http://www.w3.org/2000/svg">
<path d="M18.3547 3.05156C16.3906 1.08281 13.775 0 10.9953 0C5.25781 0 0.589062 4.66875 0.589062 10.4062C0.589062 12.2391 1.06719 14.0297 1.97656 15.6094L0.5 21L6.01719 19.5516C7.53594 20.3813 9.24687 20.8172 10.9906 20.8172H10.9953C16.7281 20.8172 21.5 16.1484 21.5 10.4109C21.5 7.63125 20.3188 5.02031 18.3547 3.05156ZM10.9953 19.0641C9.43906 19.0641 7.91562 18.6469 6.58906 17.8594L6.275 17.6719L3.00313 18.5297L3.875 15.3375L3.66875 15.0094C2.80156 13.6313 2.34688 12.0422 2.34688 10.4062C2.34688 5.63906 6.22812 1.75781 11 1.75781C13.3109 1.75781 15.4812 2.65781 17.1125 4.29375C18.7437 5.92969 19.7469 8.1 19.7422 10.4109C19.7422 15.1828 15.7625 19.0641 10.9953 19.0641ZM15.7391 12.5859C15.4813 12.4547 14.2016 11.8266 13.9625 11.7422C13.7234 11.6531 13.55 11.6109 13.3766 11.8734C13.2031 12.1359 12.7063 12.7172 12.5516 12.8953C12.4016 13.0688 12.2469 13.0922 11.9891 12.9609C10.4609 12.1969 9.45781 11.5969 8.45 9.86719C8.18281 9.40781 8.71719 9.44063 9.21406 8.44687C9.29844 8.27344 9.25625 8.12344 9.19062 7.99219C9.125 7.86094 8.60469 6.58125 8.38906 6.06094C8.17813 5.55469 7.9625 5.625 7.80313 5.61563C7.65313 5.60625 7.47969 5.60625 7.30625 5.60625C7.13281 5.60625 6.85156 5.67188 6.6125 5.92969C6.37344 6.19219 5.70312 6.82031 5.70312 8.1C5.70312 9.37969 6.63594 10.6172 6.7625 10.7906C6.89375 10.9641 8.59531 13.5891 11.2062 14.7188C12.8562 15.4312 13.5031 15.4922 14.3281 15.3703C14.8297 15.2953 15.8656 14.7422 16.0812 14.1328C16.2969 13.5234 16.2969 13.0031 16.2313 12.8953C16.1703 12.7781 15.9969 12.7125 15.7391 12.5859Z" fill="white"/>
</svg>
