<svg width="138" height="43" viewBox="0 0 138 43" fill="none" xmlns="http://www.w3.org/2000/svg">
<path d="M29.8618 14.9309C29.8618 23.1637 23.1637 29.8618 14.9309 29.8618C6.69812 29.8618 0 23.1637 0 14.9309C0 6.69812 6.69812 0 14.9309 0C23.1637 0 29.8618 6.69812 29.8618 14.9309ZM24.5293 14.9309C24.5293 9.64182 20.22 5.33246 14.9309 5.33246C9.64182 5.33246 5.33246 9.64182 5.33246 14.9309C5.33246 20.22 9.64182 24.5293 14.9309 24.5293C20.22 24.5293 24.5293 20.22 24.5293 14.9309Z" fill="#224D6D"/>
<path d="M62.9641 0V29.8618H57.6316V10.8362L52.3837 14.8464L48.0332 18.2171L43.6827 14.8464L38.4348 10.8362V29.8618H33.1023V0L38.4348 4.09469L48.0332 11.4756L57.6316 4.09469L62.9641 0Z" fill="#224D6D"/>
<path d="M95.9821 29.8618H90.0102L87.2789 24.5293L80.752 11.7314L74.2252 24.5293L71.4939 29.8618H65.522L68.2533 24.5293L80.7543 0L93.2531 24.5293L95.9844 29.8618H95.9821Z" fill="#224D6D"/>
<path d="M128.404 0.0433905V29.9052L123.071 25.8105L103.874 11.0075V29.9052H98.542V0.127888L103.874 4.22258L123.071 19.0256V0L128.404 0.0433905Z" fill="#224D6D"/>
<path d="M132.667 29.8618V0H138V29.8618H132.667Z" fill="#224D6D"/>
<path d="M3.74976 36.0369H6.30294C7.81019 36.0369 8.76478 36.8979 8.76478 38.2019V38.2202C8.76478 39.6726 7.60009 40.4308 6.17506 40.4308H4.88933V42.5135H3.75204V36.0369H3.74976ZM6.21159 39.4054C7.07255 39.4054 7.60922 38.9235 7.60922 38.2498V38.2316C7.60922 37.4734 7.06342 37.076 6.21159 37.076H4.88933V39.4077H6.21159V39.4054Z" fill="#224D6D"/>
<path d="M9.92944 36.0369H12.8161C13.6291 36.0369 14.2685 36.2767 14.6841 36.6855C15.0267 37.0372 15.2208 37.5191 15.2208 38.0831V38.1014C15.2208 39.1656 14.5814 39.8028 13.6747 40.0631L15.424 42.5158H14.0835L12.4918 40.2595H11.0667V42.5158H9.92944V36.0392V36.0369ZM12.7316 39.2478C13.5468 39.2478 14.063 38.8231 14.063 38.1653V38.1471C14.063 37.4528 13.5628 37.0737 12.7224 37.0737H11.0667V39.2478H12.7316Z" fill="#224D6D"/>
<path d="M16.3308 39.2935V39.2752C16.3308 37.4528 17.7376 35.925 19.7267 35.925C21.7158 35.925 23.1043 37.4323 23.1043 39.2547V39.273C23.1043 41.0954 21.6975 42.6232 19.7084 42.6232C17.7193 42.6232 16.3308 41.1159 16.3308 39.2935ZM21.9099 39.2935V39.2752C21.9099 38.0169 20.9941 36.971 19.7084 36.971C18.4227 36.971 17.5252 37.9986 17.5252 39.257V39.2752C17.5252 40.5336 18.441 41.5795 19.7267 41.5795C21.0124 41.5795 21.9099 40.5518 21.9099 39.2935Z" fill="#224D6D"/>
<path d="M24.4812 36.0369H25.6939L27.6647 39.0994L29.6355 36.0369H30.8482V42.5135H29.7109V37.8685L27.667 40.9218H27.6304L25.6048 37.8867V42.5135H24.4858V36.0369H24.4812Z" fill="#224D6D"/>
<path d="M32.2253 39.2935V39.2752C32.2253 37.4528 33.6321 35.925 35.6212 35.925C37.6103 35.925 38.9988 37.4323 38.9988 39.2547V39.273C38.9988 41.0954 37.5921 42.6232 35.6029 42.6232C33.6138 42.6232 32.2253 41.1159 32.2253 39.2935ZM37.8044 39.2935V39.2752C37.8044 38.0169 36.8887 36.971 35.6029 36.971C34.3172 36.971 33.4197 37.9986 33.4197 39.257V39.2752C33.4197 40.5336 34.3355 41.5795 35.6212 41.5795C36.9069 41.5795 37.8044 40.5518 37.8044 39.2935Z" fill="#224D6D"/>
<path d="M41.6136 37.092H39.5605V36.0369H44.8154V37.092H42.7623V42.5135H41.6159V37.092H41.6136Z" fill="#224D6D"/>
<path d="M45.3794 39.2935V39.2752C45.3794 37.4528 46.7862 35.925 48.7753 35.925C50.7644 35.925 52.1529 37.4323 52.1529 39.2547V39.273C52.1529 41.0954 50.7461 42.6232 48.757 42.6232C46.7679 42.6232 45.3794 41.1159 45.3794 39.2935ZM50.9585 39.2935V39.2752C50.9585 38.0169 50.0427 36.971 48.757 36.971C47.4713 36.971 46.5738 37.9986 46.5738 39.257V39.2752C46.5738 40.5336 47.4895 41.5795 48.7753 41.5795C50.061 41.5795 50.9585 40.5518 50.9585 39.2935Z" fill="#224D6D"/>
<path d="M53.53 36.0369H56.4166C57.2296 36.0369 57.8691 36.2767 58.2847 36.6855C58.6273 37.0372 58.8214 37.5191 58.8214 38.0831V38.1014C58.8214 39.1656 58.1819 39.8028 57.2753 40.0631L59.0246 42.5158H57.6841L56.0924 40.2595H54.6673V42.5158H53.53V36.0392V36.0369ZM56.3321 39.2478C57.1474 39.2478 57.6635 38.8231 57.6635 38.1653V38.1471C57.6635 37.4528 57.1634 37.0737 56.323 37.0737H54.6673V39.2478H56.3321Z" fill="#224D6D"/>
<path d="M62.5119 35.9913H63.567L66.4171 42.5135H65.2136L64.5559 40.9492H61.4934L60.8266 42.5135H59.6619L62.5119 35.9913ZM64.1402 39.9421L63.0212 37.3523L61.9113 39.9421H64.1402Z" fill="#224D6D"/>
<path d="M72.2062 39.9603L69.6348 36.0369H70.9753L72.7886 38.9053L74.6201 36.0369H75.9241L73.3526 39.9329V42.5135H72.2062V39.9603Z" fill="#224D6D"/>
<path d="M79.699 36.0369H82.2522C83.7594 36.0369 84.714 36.8979 84.714 38.2019V38.2202C84.714 39.6726 83.5493 40.4308 82.1243 40.4308H80.8386V42.5135H79.7013V36.0369H79.699ZM82.1608 39.4054C83.0218 39.4054 83.5584 38.9235 83.5584 38.2498V38.2316C83.5584 37.4734 83.0126 37.076 82.1608 37.076H80.8386V39.4077H82.1608V39.4054Z" fill="#224D6D"/>
<path d="M85.8789 36.0369H88.7655C89.5785 36.0369 90.218 36.2767 90.6336 36.6855C90.9761 37.0372 91.1703 37.5191 91.1703 38.0831V38.1014C91.1703 39.1656 90.5308 39.8028 89.6242 40.0631L91.3735 42.5158H90.033L88.4412 40.2595H87.0162V42.5158H85.8789V36.0392V36.0369ZM88.681 39.2478C89.4963 39.2478 90.0124 38.8231 90.0124 38.1653V38.1471C90.0124 37.4528 89.5123 37.0737 88.6719 37.0737H87.0162V39.2478H88.681Z" fill="#224D6D"/>
<path d="M92.28 39.2935V39.2752C92.28 37.4528 93.6868 35.925 95.6759 35.925C97.665 35.925 99.0535 37.4323 99.0535 39.2547V39.273C99.0535 41.0954 97.6467 42.6232 95.6576 42.6232C93.6685 42.6232 92.28 41.1159 92.28 39.2935ZM97.8591 39.2935V39.2752C97.8591 38.0169 96.9434 36.971 95.6576 36.971C94.3719 36.971 93.4744 37.9986 93.4744 39.257V39.2752C93.4744 40.5336 94.3902 41.5795 95.6759 41.5795C96.9616 41.5795 97.8591 40.5518 97.8591 39.2935Z" fill="#224D6D"/>
<path d="M101.78 39.9603L99.2087 36.0369H100.549L102.363 38.9053L104.194 36.0369H105.498L102.927 39.9329V42.5135H101.78V39.9603Z" fill="#224D6D"/>
<path d="M106.499 36.0369H111.301V37.0555H107.638V38.7386H110.886V39.7571H107.638V41.4973H111.349V42.5158H106.501V36.0392L106.499 36.0369Z" fill="#224D6D"/>
<path d="M112.411 39.2935V39.2752C112.411 37.4346 113.79 35.925 115.75 35.925C116.944 35.925 117.666 36.3407 118.285 36.9344L117.554 37.7771C117.035 37.2953 116.481 36.9733 115.741 36.9733C114.501 36.9733 113.603 37.9918 113.603 39.2593V39.2775C113.603 40.545 114.501 41.5818 115.741 41.5818C116.535 41.5818 117.045 41.2575 117.6 40.7391L118.33 41.479C117.654 42.1824 116.914 42.6254 115.702 42.6254C113.815 42.6254 112.409 41.1547 112.409 39.2958L112.411 39.2935Z" fill="#224D6D"/>
<path d="M121.117 37.092H119.063V36.0369H124.318V37.092H122.265V42.5135H121.119V37.092H121.117Z" fill="#224D6D"/>
<path d="M124.88 39.2935V39.2752C124.88 37.4528 126.287 35.925 128.276 35.925C130.265 35.925 131.653 37.4323 131.653 39.2547V39.273C131.653 41.0954 130.247 42.6232 128.257 42.6232C126.268 42.6232 124.88 41.1159 124.88 39.2935ZM130.459 39.2935V39.2752C130.459 38.0169 129.543 36.971 128.257 36.971C126.972 36.971 126.074 37.9986 126.074 39.257V39.2752C126.074 40.5336 126.99 41.5795 128.276 41.5795C129.561 41.5795 130.459 40.5518 130.459 39.2935Z" fill="#224D6D"/>
<path d="M132.549 41.5681L133.234 40.7551C133.853 41.2918 134.474 41.5978 135.278 41.5978C135.981 41.5978 136.424 41.2735 136.424 40.7848V40.7665C136.424 40.3029 136.166 40.054 134.963 39.7754C133.583 39.4419 132.807 39.0354 132.807 37.8411V37.8228C132.807 36.7129 133.732 35.9456 135.017 35.9456C135.961 35.9456 136.71 36.2333 137.367 36.7586L136.758 37.6195C136.175 37.1856 135.593 36.9527 134.999 36.9527C134.332 36.9527 133.944 37.2953 133.944 37.72V37.7383C133.944 38.2384 134.241 38.46 135.479 38.7568C136.849 39.0903 137.561 39.5813 137.561 40.6523V40.6706C137.561 41.8832 136.609 42.6049 135.248 42.6049C134.259 42.6049 133.323 42.2623 132.546 41.5681H132.549Z" fill="#224D6D"/>
<path d="M15.1163 8.91503L8.80981 15.4983L9.46946 16.1302L15.776 9.54694L15.1163 8.91503Z" fill="#C3A350"/>
<path d="M18.3568 9.96307L10.0464 18.5448L10.7026 19.1802L19.013 10.5985L18.3568 9.96307Z" fill="#C3A350"/>
<path d="M19.3695 13.0582L13.063 19.6415L13.7226 20.2734L20.0292 13.6901L19.3695 13.0582Z" fill="#C3A350"/>
</svg>
