<?xml version="1.0" encoding="UTF-8"?>
<svg id="Capa_1" data-name="Capa 1" xmlns="http://www.w3.org/2000/svg" viewBox="0 0 512 512">
  <defs>
    <style>
      .cls-1 {
        fill: #3c4751;
      }

      .cls-1, .cls-2, .cls-3 {
        stroke-width: 0px;
      }

      .cls-2 {
        fill: #fff;
      }

      .cls-3 {
        fill: #eb472a;
      }
    </style>
  </defs>
  <rect class="cls-2" x="-13.6" y="-13.6" width="539.21" height="539.21"/>
  <g>
    <path class="cls-1" d="m106.41,378.3c-14.67-11.2-27.99-21.34-41.28-31.51-2.32-1.72-4.18-3.98-5.42-6.59-1.24-2.61-1.82-5.48-1.68-8.37.09-47.85.09-95.71,0-143.58,0-7.27,3.21-12.26,8.71-16.46,55.18-41.98,110.35-83.99,165.53-126.03,3.79-2.87,7.52-5.79,11.36-8.65,9.35-7.01,15.82-7.03,25.12,0l151.81,115.6c8.56,6.52,17.08,13.11,25.72,19.56,2.48,1.68,4.49,3.97,5.84,6.65,1.35,2.68,1.99,5.66,1.87,8.65-.18,48.35-.18,96.71,0,145.08,0,4.51-.51,8.91-3.97,11.68-14.22,11.3-28.7,22.26-44.26,34.26v-38.95c0-4.14,3.33-5.64,5.91-7.04,8.34-4.51,10.23-11.11,10.1-20.32-.57-36.58-.35-73.18-.14-109.76,0-5.22-1.32-8.71-5.63-12.04-51.5-38.98-102.9-78.1-154.18-117.38-4.51-3.51-7.15-3.01-11.32.24-51.28,39.28-102.68,78.4-154.2,117.38-1.73,1.13-3.13,2.7-4.05,4.56-.92,1.85-1.32,3.92-1.17,5.98.21,38.59.21,77.18,0,115.77,0,5.88,1.29,10.11,6.56,12.85,7.18,3.75,9.74,9.41,9.03,17.65-.89,9.73-.26,19.5-.26,30.76Z"/>
    <path class="cls-3" d="m376.44,358.39c0,11.27-.11,22.57,0,33.83.08,7.04-2.41,12.35-8.49,16.39-33.74,22.44-67.4,45.02-100.97,67.72-7.52,5.06-14.66,5.18-22.24,0-33.6-22.64-67.25-45.21-100.96-67.72-2.68-1.61-4.86-3.93-6.3-6.7-1.45-2.77-2.1-5.88-1.9-9,.27-23.07.27-46.15,0-69.22-.11-7.42,2.92-12.26,8.79-16.18,33.29-22.19,66.53-44.45,99.74-66.78,8.07-5.43,15.48-5.36,23.55.11,33.11,22.39,66.36,44.64,99.77,66.75,6.26,4.15,9.15,9.45,9.03,16.87-.15,11.38-.02,22.66-.02,33.93Zm-209.17-2.29c0,10.01.23,18.28-.11,26.53-.17,4.05,1.35,6.29,4.62,8.46,26.67,17.7,53.25,35.51,79.76,53.44,3.15,2.14,5.22,2.23,8.47,0,26.72-18.06,53.52-35.99,80.42-53.8,1.5-.84,2.72-2.09,3.52-3.61.8-1.52,1.15-3.24.99-4.95-.24-15.77-.27-31.6,0-47.34.15-1.83-.22-3.66-1.09-5.28s-2.17-2.95-3.77-3.84c-26.67-17.68-53.33-35.36-79.75-53.38-3.67-2.5-5.85-2.08-9.03.13-19.86,13.54-39.85,26.76-59.76,40.13-7.89,5.3-18.31,9.03-22.81,16.55-4.79,7.69-.92,18.98-1.43,26.95h-.03Z"/>
    <path class="cls-3" d="m255.43,399.08c-15.82,0-15.72,0-13.05-15.41,1.19-6.86,1.7-13.86,3.01-20.71.53-2.87-1.26-4-2.56-5.75-6.23-8.41-5.57-17.56,1.69-24.2,3.12-2.96,7.24-4.63,11.54-4.67,4.3-.04,8.45,1.56,11.62,4.46,6.85,6.02,7.81,16.42,1.51,24.18-2.69,3.3-2.26,6.46-1.82,9.8,1.14,8.64,2.47,17.25,3.97,25.84.78,4.51.24,7.22-5.36,6.53-3.51-.24-7.03-.26-10.55-.08Z"/>
  </g>
</svg>