<svg width="1077" height="298" viewBox="0 0 1077 298" fill="none" xmlns="http://www.w3.org/2000/svg">
<path d="M32.0505 229.436C22.3338 222.021 13.5139 215.304 4.71396 208.567C3.17832 207.428 1.94618 205.928 1.12594 204.201C0.305709 202.474 -0.0774898 200.571 0.0100357 198.661C0.0698313 166.969 0.0698313 135.274 0.0100357 103.576C0.0100357 98.7625 2.13276 95.4538 5.7803 92.6733C42.3221 64.8683 78.8639 37.0467 115.406 9.20847C117.917 7.30497 120.389 5.37158 122.93 3.47805C129.119 -1.16608 133.404 -1.17605 139.563 3.47805L240.1 80.0364C245.77 84.3517 251.411 88.7168 257.131 92.9922C258.774 94.1079 260.105 95.6243 260.998 97.3979C261.89 99.1715 262.316 101.144 262.234 103.128C262.114 135.151 262.114 167.179 262.234 199.209C262.234 202.199 261.895 205.109 259.603 206.943C250.185 214.427 240.598 221.682 230.293 229.635C230.293 220.307 230.293 212.075 230.293 203.843C230.293 201.103 232.496 200.106 234.21 199.179C239.731 196.19 240.987 191.824 240.897 185.725C240.518 161.498 240.668 137.261 240.807 113.034C240.807 109.575 239.93 107.263 237.08 105.061C202.97 79.2491 168.933 53.3377 134.969 27.3265C131.979 25.0045 130.235 25.3333 127.474 27.486C93.5105 53.4971 59.4702 79.4085 25.3534 105.22C24.2063 105.968 23.2806 107.01 22.6724 108.237C22.0642 109.463 21.7959 110.831 21.8952 112.197C22.0348 137.756 22.0348 163.312 21.8952 188.865C21.8952 192.761 22.7523 195.562 26.2404 197.375C30.9941 199.857 32.6884 203.604 32.22 209.066C31.632 215.513 32.0505 221.981 32.0505 229.436Z" fill="#3C4751"/>
<path d="M211.129 216.251C211.129 223.716 211.059 231.2 211.129 238.654C211.179 243.319 209.534 246.837 205.508 249.507C183.164 264.37 160.874 279.319 138.637 294.354C133.654 297.703 128.93 297.782 123.907 294.354C101.656 279.359 79.369 264.41 57.0453 249.507C55.2733 248.44 53.8293 246.906 52.8712 245.072C51.9132 243.239 51.4782 241.177 51.6139 239.113C51.7933 223.832 51.7933 208.551 51.6139 193.27C51.5441 188.356 53.5473 185.147 57.434 182.556C79.4787 167.86 101.497 153.117 123.488 138.327C128.83 134.73 133.743 134.779 139.085 138.397C161.01 153.226 183.035 167.963 205.159 182.606C209.305 185.357 211.219 188.865 211.139 193.778C211.039 201.312 211.129 208.787 211.129 216.251ZM72.6022 214.736C72.6022 221.364 72.7516 226.845 72.5324 232.306C72.4228 234.987 73.4293 236.472 75.5919 237.907C93.2516 249.627 110.858 261.423 128.411 273.296C130.494 274.711 131.87 274.771 134.022 273.296C151.715 261.337 169.468 249.461 187.28 237.668C188.273 237.112 189.084 236.281 189.614 235.275C190.145 234.269 190.373 233.13 190.27 231.997C190.111 221.553 190.091 211.069 190.27 200.644C190.371 199.435 190.122 198.221 189.551 197.15C188.98 196.079 188.112 195.195 187.051 194.605C169.391 182.895 151.732 171.185 134.232 159.256C131.8 157.601 130.355 157.881 128.252 159.346C115.097 168.315 101.862 177.065 88.6772 185.925C83.4551 189.433 76.5487 191.904 73.5689 196.887C70.3997 201.98 72.9609 209.454 72.6221 214.736H72.6022Z" fill="#EB472A"/>
<path d="M654.324 230.852L555.582 123.708C554.535 125.631 554.954 127.445 554.954 129.129C554.954 160.821 554.834 192.522 555.044 224.214C555.044 228.659 553.907 230.303 549.542 229.606C548.218 229.445 546.88 229.445 545.556 229.606C543.015 229.835 541.928 228.888 542.158 226.227C542.357 223.925 542.158 221.583 542.158 219.251V92.9128L642.365 200.794V105.271C646.7 108.151 650.198 110.483 653.726 112.795C655.102 113.692 654.902 115.057 654.902 116.363C654.902 154.034 654.902 191.705 654.902 229.377C654.77 229.89 654.576 230.385 654.324 230.852Z" fill="#EB472A"/>
<path d="M330.252 193.2C330.252 203.983 330.122 214.776 330.331 225.559C330.401 228.938 329.265 229.705 326.086 229.675C317.366 229.615 317.366 229.755 317.366 221.105C317.366 201.173 317.216 181.241 317.485 161.309C317.545 156.754 316.14 155.598 311.874 155.907C306.891 156.266 301.908 155.847 296.925 156.047C293.936 156.176 292.939 155.21 292.989 152.06C293.268 142.981 292.221 144.785 300.324 144.626C304.639 144.546 308.964 144.417 313.279 144.626C316.588 144.825 317.475 143.629 317.435 140.43C317.266 127.156 317.495 113.871 317.286 100.566C317.226 96.7694 318.093 95.4838 322.179 95.5336C341.433 95.7628 360.697 95.6133 379.982 95.6432C387.618 95.539 395.227 96.5804 402.554 98.7327C417.214 103.257 425.267 114.001 424.41 127.504C423.473 142.065 414.593 151.423 399.046 154.333C390.685 155.877 382.234 155.997 373.763 155.997C360.648 155.997 347.532 156.087 334.417 155.927C331.158 155.927 330.162 156.924 330.212 160.163C330.361 171.275 330.252 182.237 330.252 193.2ZM363.548 144.566C373.334 144.068 385.144 145.563 396.864 143.569C406.092 142.015 411.055 136.593 411.494 127.544C411.952 117.847 407.826 112.107 398.638 109.685C394.315 108.514 389.862 107.891 385.383 107.832C368.292 107.732 351.19 107.832 334.098 107.702C331.109 107.702 330.052 108.43 330.112 111.559C330.301 121.345 330.321 131.142 330.112 140.919C330.042 144.237 331.368 144.706 334.208 144.656C343.327 144.436 352.456 144.536 363.548 144.536V144.566Z" fill="#EB472A"/>
<path d="M847.893 162.555C847.893 141.815 847.992 121.076 847.803 100.337C847.803 96.56 848.8 95.673 852.497 95.6929C880.212 95.8524 907.938 95.962 935.653 95.6929C941.632 95.6232 940.217 99.0415 940.476 102.31C940.765 105.918 940.426 107.921 935.693 107.871C912.123 107.592 888.554 107.812 864.984 107.662C861.307 107.662 859.762 108.25 859.922 112.436C860.27 121.714 860.201 131.022 859.922 140.34C859.822 143.898 860.918 144.725 864.356 144.706C883.939 144.536 903.533 144.835 923.155 144.476C928.268 144.377 928.697 146.469 928.587 150.456C928.497 154.193 928.906 156.804 923.375 156.695C903.802 156.276 884.209 156.635 864.576 156.435C860.858 156.435 859.862 157.322 859.902 161.08C860.121 178.5 860.121 195.921 859.902 213.341C859.902 217.148 860.988 218.075 864.655 218.055C888.723 217.895 912.801 218.165 936.859 217.816C942.091 217.746 941.901 220.158 941.842 223.725C941.782 227.134 942.33 229.785 936.958 229.705C908.914 229.366 880.85 229.436 852.806 229.705C848.421 229.705 847.733 228.28 847.823 224.363C847.992 203.704 847.893 183.124 847.893 162.555Z" fill="#EB472A"/>
<path d="M1029.57 168.893C1029.57 187.479 1029.46 206.056 1029.67 224.642C1029.67 228.539 1028.68 230.144 1024.69 229.526C1023.54 229.361 1022.36 229.361 1021.21 229.526C1018.22 229.914 1017.09 228.908 1017.22 225.729C1017.49 220.596 1017.3 215.444 1017.3 210.301C1017.3 177.623 1017.23 144.935 1017.39 112.246C1017.39 108.549 1016.53 107.523 1012.76 107.592C1000.15 107.851 987.536 107.523 974.889 107.792C971.022 107.881 969.806 106.685 970.384 103.078C970.535 102.087 970.535 101.079 970.384 100.088C969.836 96.5899 971.231 95.673 974.729 95.6929C1007.09 95.8325 1039.46 95.8325 1071.83 95.6929C1075.41 95.6929 1076.24 96.7394 1076.16 100.148C1075.97 107.672 1076.16 107.682 1068.56 107.682C1057.44 107.682 1046.3 107.981 1035.2 107.542C1030.16 107.353 1029.28 109.017 1029.35 113.642C1029.73 132.059 1029.57 150.476 1029.57 168.893Z" fill="#EB472A"/>
<path d="M727.753 105.3V129.567C727.753 157.263 727.833 184.968 727.664 212.673C727.664 216.739 728.66 218.035 732.886 217.995C756.953 217.806 781.021 218.075 805.079 217.776C810.501 217.706 809.713 220.626 809.863 223.965C810.022 227.543 809.803 229.655 805.039 229.615C776.669 229.376 748.293 229.376 719.91 229.615C715.924 229.615 715.366 228.34 715.376 224.832C715.508 189.659 715.508 154.489 715.376 119.322C715.376 114.987 716.372 112.157 720.299 110.223C722.591 109.047 724.654 107.363 727.753 105.3Z" fill="#EB472A"/>
<path d="M469.396 162.605C469.396 142.055 469.506 121.495 469.297 100.945C469.297 96.9588 470.154 95.0553 474.399 95.7529C475.552 95.9273 476.724 95.9273 477.877 95.7529C481.096 95.3045 482.252 96.5004 482.153 99.839C481.923 107.134 482.083 114.429 482.083 121.764C482.083 155.907 481.993 190.061 482.183 224.204C482.183 228.559 481.186 230.393 476.731 229.635C475.741 229.48 474.732 229.48 473.741 229.635C470.303 230.144 469.277 228.838 469.307 225.31C469.486 204.382 469.396 183.493 469.396 162.605Z" fill="#EB472A"/>
<path d="M130.853 243.199C120.379 243.199 120.439 243.199 122.213 232.994C123 228.449 123.339 223.815 124.206 219.28C124.555 217.377 123.369 216.63 122.512 215.473C118.386 209.903 118.824 203.843 123.628 199.448C125.692 197.487 128.422 196.382 131.269 196.356C134.116 196.331 136.866 197.386 138.965 199.309C143.5 203.295 144.138 210.182 139.962 215.324C138.178 217.507 138.467 219.599 138.756 221.812C139.514 227.532 140.391 233.236 141.387 238.923C141.905 241.913 141.547 243.707 137.839 243.249C135.514 243.091 133.181 243.074 130.853 243.199Z" fill="#EB472A"/>
</svg>
