<svg width="258" height="71" viewBox="0 0 258 71" fill="none" xmlns="http://www.w3.org/2000/svg">
<path d="M7.65517 54.79C5.33434 53.0193 3.22774 51.4153 1.12589 49.8064C0.759108 49.5343 0.464815 49.1763 0.268904 48.7638C0.0729934 48.3513 -0.0185328 47.897 0.00237249 47.4408C0.0166545 39.8727 0.0166545 32.3039 0.00237249 24.7342C0.00237249 23.5847 0.50938 22.7946 1.38059 22.1306C10.1085 15.4907 18.8364 8.84677 27.5644 2.19891C28.1642 1.74435 28.7545 1.28265 29.3615 0.830471C30.8397 -0.278563 31.8632 -0.280943 33.3343 0.830471L57.3472 19.1129C58.7016 20.1434 60.0489 21.1858 61.4152 22.2067C61.8075 22.4732 62.1253 22.8353 62.3386 23.2588C62.5519 23.6824 62.6535 24.1533 62.6339 24.6271C62.6054 32.2745 62.6054 39.9227 62.6339 47.5717C62.6339 48.2857 62.553 48.9806 62.0055 49.4185C59.7561 51.2058 57.4662 52.9384 55.0049 54.8376C55.0049 52.61 55.0049 50.6442 55.0049 48.6784C55.0049 48.0239 55.531 47.7859 55.9404 47.5646C57.2591 46.8506 57.559 45.8082 57.5376 44.3517C57.4472 38.5662 57.4829 32.7783 57.5162 26.9927C57.5162 26.1669 57.3067 25.6148 56.626 25.0888C48.4788 18.9249 40.3492 12.7371 32.237 6.52557C31.5229 5.97106 31.1063 6.04959 30.4469 6.56364C22.3347 12.7752 14.2043 18.9629 6.05558 25.1269C5.7816 25.3055 5.56048 25.5542 5.41523 25.8472C5.26996 26.1401 5.20587 26.4667 5.2296 26.7928C5.26293 32.8965 5.26293 38.9993 5.2296 45.1014C5.2296 46.0319 5.43431 46.7007 6.26743 47.1338C7.40285 47.7264 7.80751 48.6213 7.69563 49.9254C7.55519 51.4652 7.65517 53.0098 7.65517 54.79Z" fill="white"/>
<path d="M50.4276 51.6414C50.4276 53.424 50.4109 55.2113 50.4276 56.9915C50.4395 58.1053 50.0467 58.9454 49.0851 59.5832C43.7483 63.1324 38.4243 66.7023 33.113 70.2927C31.9228 71.0924 30.7945 71.1114 29.5948 70.2927C24.2803 66.7118 18.9571 63.1419 13.6251 59.5832C13.2019 59.3283 12.857 58.9619 12.6281 58.524C12.3993 58.0862 12.2954 57.5939 12.3278 57.1009C12.3707 53.4518 12.3707 49.8026 12.3278 46.1534C12.3112 44.9801 12.7896 44.2138 13.7179 43.595C18.9833 40.0854 24.2422 36.5648 29.4948 33.033C30.7707 32.1739 31.9442 32.1858 33.2201 33.0497C38.4568 36.591 43.7174 40.11 49.0018 43.6069C49.992 44.2638 50.449 45.1015 50.43 46.2748C50.4062 48.074 50.4276 49.8589 50.4276 51.6414ZM17.3408 51.2797C17.3408 52.8623 17.3765 54.1713 17.3242 55.4755C17.298 56.1157 17.5384 56.4703 18.0549 56.813C22.2729 59.6117 26.4782 62.4287 30.6707 65.264C31.1682 65.6019 31.4967 65.6162 32.0109 65.264C36.2368 62.4081 40.477 59.5721 44.7314 56.7559C44.9685 56.6232 45.1622 56.4247 45.2889 56.1844C45.4156 55.9441 45.47 55.6722 45.4455 55.4017C45.4074 52.9076 45.4027 50.4039 45.4455 47.9145C45.4697 47.6256 45.4101 47.3359 45.2737 47.0801C45.1373 46.8243 44.93 46.6132 44.6767 46.4723C40.4587 43.6759 36.2407 40.8795 32.0609 38.0308C31.4801 37.6357 31.1349 37.7024 30.6327 38.0522C27.4906 40.1941 24.3295 42.2837 21.1803 44.3994C19.933 45.2371 18.2834 45.8274 17.5717 47.0173C16.8148 48.2334 17.4265 50.0184 17.3456 51.2797H17.3408Z" fill="white"/>
<path d="M156.284 55.1281L132.699 29.5418C132.449 30.0011 132.549 30.4342 132.549 30.8364C132.549 38.4045 132.521 45.975 132.571 53.5431C132.571 54.6045 132.299 54.9972 131.257 54.8306C130.941 54.7923 130.621 54.7923 130.305 54.8306C129.698 54.8853 129.438 54.6592 129.493 54.0238C129.541 53.4741 129.493 52.9148 129.493 52.3579V22.1879L153.427 47.9503V25.1389C154.463 25.8267 155.298 26.3836 156.141 26.9358C156.469 27.15 156.422 27.476 156.422 27.7878C156.422 36.7838 156.422 45.7798 156.422 54.7759C156.39 54.8984 156.344 55.0167 156.284 55.1281Z" fill="white"/>
<path d="M78.8798 46.1367C78.8798 48.7118 78.8488 51.2892 78.8988 53.8642C78.9155 54.671 78.6441 54.8543 77.8848 54.8471C75.802 54.8329 75.802 54.8662 75.802 52.8004C75.802 48.0406 75.7663 43.2808 75.8306 38.521C75.8448 37.4334 75.5092 37.1574 74.4904 37.2311C73.3003 37.3168 72.1101 37.2168 70.9199 37.2644C70.2058 37.2954 69.9678 37.0645 69.9797 36.3125C70.0463 34.1444 69.7964 34.5752 71.7316 34.5371C72.7623 34.518 73.7954 34.4871 74.826 34.5371C75.6163 34.5847 75.8282 34.2991 75.8187 33.5351C75.7782 30.3651 75.8329 27.1927 75.7829 24.0155C75.7687 23.1088 75.9757 22.8018 76.9517 22.8137C81.5505 22.8684 86.1517 22.8327 90.7577 22.8399C92.5816 22.815 94.399 23.0637 96.1492 23.5776C99.6506 24.6581 101.574 27.2236 101.369 30.4484C101.145 33.9254 99.0246 36.1602 95.3113 36.8551C93.3142 37.224 91.2956 37.2525 89.2723 37.2525C86.1398 37.2525 83.0073 37.274 79.8748 37.2359C79.0964 37.2359 78.8584 37.4739 78.8703 38.2473C78.906 40.9009 78.8798 43.5188 78.8798 46.1367ZM86.8325 34.5228C89.17 34.4038 91.9907 34.7608 94.79 34.2848C96.9942 33.9135 98.1796 32.6189 98.2843 30.4579C98.3938 28.1423 97.4084 26.7715 95.2137 26.1931C94.1812 25.9133 93.1175 25.7646 92.0478 25.7505C87.9655 25.7267 83.8809 25.7505 79.7986 25.7196C79.0845 25.7196 78.8322 25.8933 78.8464 26.6406C78.8917 28.9776 78.8964 31.3171 78.8464 33.6518C78.8298 34.4443 79.1464 34.5561 79.8248 34.5442C82.0028 34.4919 84.1832 34.5157 86.8325 34.5157V34.5228Z" fill="white"/>
<path d="M202.517 38.8186C202.517 33.866 202.541 28.9134 202.496 23.9609C202.496 23.0589 202.734 22.8471 203.617 22.8518C210.237 22.8899 216.859 22.9161 223.478 22.8518C224.907 22.8352 224.569 23.6515 224.631 24.4321C224.7 25.2936 224.619 25.772 223.488 25.7601C217.858 25.6934 212.229 25.7458 206.599 25.7101C205.721 25.7101 205.352 25.8505 205.39 26.8501C205.474 29.0657 205.457 31.2886 205.39 33.5138C205.366 34.3634 205.628 34.5609 206.449 34.5562C211.127 34.5157 215.807 34.5871 220.493 34.5014C221.715 34.4776 221.817 34.9774 221.791 35.9294C221.769 36.8218 221.867 37.4454 220.546 37.4192C215.871 37.3192 211.191 37.4049 206.502 37.3573C205.614 37.3573 205.376 37.5691 205.385 38.4664C205.438 42.6264 205.438 46.7865 205.385 50.9466C205.385 51.8557 205.645 52.077 206.521 52.0722C212.269 52.0342 218.02 52.0984 223.766 52.0151C225.016 51.9985 224.971 52.5744 224.957 53.4264C224.942 54.2403 225.073 54.8734 223.79 54.8544C217.092 54.7734 210.389 54.7901 203.691 54.8544C202.643 54.8544 202.479 54.514 202.5 53.5787C202.541 48.6452 202.517 43.7307 202.517 38.8186Z" fill="white"/>
<path d="M245.911 40.3321C245.911 44.7707 245.885 49.2068 245.935 53.6453C245.935 54.5758 245.697 54.959 244.744 54.8115C244.469 54.7722 244.189 54.7722 243.914 54.8115C243.2 54.9043 242.931 54.6639 242.961 53.9047C243.026 52.6791 242.981 51.4487 242.981 50.2206C242.981 42.4169 242.964 34.6109 243.002 26.8048C243.002 25.9218 242.795 25.6767 241.895 25.6934C238.884 25.7552 235.87 25.6767 232.85 25.741C231.926 25.7624 231.636 25.4768 231.774 24.6153C231.81 24.3786 231.81 24.1379 231.774 23.9013C231.643 23.066 231.976 22.847 232.812 22.8518C240.541 22.8851 248.272 22.8851 256.003 22.8518C256.858 22.8518 257.058 23.1017 257.039 23.9156C256.994 25.7124 257.039 25.7148 255.223 25.7148C252.566 25.7148 249.907 25.7862 247.256 25.6815C246.051 25.6362 245.842 26.0337 245.858 27.138C245.949 31.536 245.911 35.9341 245.911 40.3321Z" fill="white"/>
<path d="M173.822 25.146V30.9411C173.822 37.5548 173.841 44.1709 173.801 50.787C173.801 51.758 174.039 52.0674 175.048 52.0579C180.797 52.0127 186.545 52.077 192.291 52.0056C193.586 51.9889 193.398 52.6862 193.434 53.4835C193.472 54.3379 193.419 54.8424 192.282 54.8329C185.506 54.7758 178.728 54.7758 171.949 54.8329C170.997 54.8329 170.863 54.5283 170.866 53.6905C170.897 45.2911 170.897 36.8924 170.866 28.4945C170.866 27.4593 171.104 26.7834 172.042 26.3217C172.589 26.0408 173.082 25.6386 173.822 25.146Z" fill="white"/>
<path d="M112.114 38.8305C112.114 33.9231 112.14 29.0134 112.09 24.106C112.09 23.1541 112.295 22.6995 113.309 22.8661C113.584 22.9077 113.864 22.9077 114.14 22.8661C114.909 22.759 115.185 23.0446 115.161 23.8419C115.106 25.5839 115.144 27.326 115.144 29.0776C115.144 37.2312 115.123 45.3871 115.168 53.5406C115.168 54.5807 114.93 55.0186 113.866 54.8377C113.629 54.8005 113.389 54.8005 113.152 54.8377C112.331 54.9591 112.086 54.6473 112.093 53.8048C112.136 48.807 112.114 43.8187 112.114 38.8305Z" fill="white"/>
<path d="M31.2539 58.0767C28.7521 58.0767 28.7664 58.0767 29.1901 55.6397C29.3782 54.5545 29.4591 53.4478 29.6662 52.365C29.7495 51.9104 29.4663 51.7319 29.2615 51.4558C28.2761 50.1255 28.3808 48.6785 29.5281 47.629C30.0211 47.1607 30.6733 46.8968 31.3532 46.8906C32.0332 46.8844 32.6901 47.1364 33.1915 47.5956C34.2745 48.5476 34.4269 50.1921 33.4295 51.4201C33.0034 51.9413 33.0725 52.4411 33.1415 52.9695C33.3224 54.3355 33.5319 55.6976 33.7699 57.0557C33.8937 57.7697 33.808 58.1981 32.9225 58.0886C32.3671 58.0509 31.8098 58.047 31.2539 58.0767Z" fill="white"/>
</svg>
