<svg width="191" height="59" viewBox="0 0 191 59" fill="none" xmlns="http://www.w3.org/2000/svg">
<path d="M41.3304 20.6666C41.3304 32.062 32.0599 41.3332 20.6652 41.3332C9.27059 41.3332 0 32.062 0 20.6666C0 9.2712 9.27059 0 20.6652 0C32.0599 0 41.3304 9.2712 41.3304 20.6666ZM33.95 20.6666C33.95 13.3457 27.9856 7.38093 20.6652 7.38093C13.3448 7.38093 7.38044 13.3457 7.38044 20.6666C7.38044 27.9875 13.3448 33.9523 20.6652 33.9523C27.9856 33.9523 33.95 27.9875 33.95 20.6666Z" fill="#FCFCFF"/>
<path d="M87.1461 0V41.3332H79.7657V14.9989L72.5022 20.5496L66.4809 25.2153L60.4596 20.5496L53.1961 14.9989V41.3332H45.8157V0L53.1961 5.66767L66.4809 15.884L79.7657 5.66767L87.1461 0Z" fill="#FCFCFF"/>
<path d="M132.845 41.3332H124.579L120.799 33.9523L111.765 16.238L102.732 33.9523L98.9515 41.3332H90.686L94.4663 33.9523L111.768 0L129.067 33.9523L132.848 41.3332H132.845Z" fill="#FCFCFF"/>
<path d="M177.718 0.0600589V41.3932L170.338 35.7256L143.768 15.236V41.3932H136.388V0.177016L143.768 5.84468L170.338 26.3343V0L177.718 0.0600589Z" fill="#FCFCFF"/>
<path d="M183.62 41.3332V0H191V41.3332H183.62Z" fill="#FCFCFF"/>
<path d="M5.18994 49.8804H8.7237C10.8098 49.8804 12.131 51.0721 12.131 52.877V52.9023C12.131 54.9127 10.519 55.9621 8.5467 55.9621H6.76717V58.845H5.1931V49.8804H5.18994ZM8.59727 54.5428C9.78889 54.5428 10.5317 53.8759 10.5317 52.9434V52.9181C10.5317 51.8686 9.77624 51.3186 8.59727 51.3186H6.76717V54.546H8.59727V54.5428Z" fill="#FCFCFF"/>
<path d="M13.7429 49.8804H17.7382C18.8634 49.8804 19.7484 50.2123 20.3237 50.7781C20.7978 51.2649 21.0665 51.9319 21.0665 52.7126V52.7379C21.0665 54.2109 20.1814 55.0929 18.9266 55.4532L21.3478 58.8481H19.4924L17.2893 55.7251H15.317V58.8481H13.7429V49.8835V49.8804ZM17.6212 54.3247C18.7496 54.3247 19.4639 53.7368 19.4639 52.8264V52.8011C19.4639 51.8402 18.7717 51.3155 17.6086 51.3155H15.317V54.3247H17.6212Z" fill="#FCFCFF"/>
<path d="M22.6028 54.3881V54.3628C22.6028 51.8403 24.5498 49.7256 27.3029 49.7256C30.0559 49.7256 31.9777 51.8118 31.9777 54.3343V54.3596C31.9777 56.8821 30.0306 58.9968 27.2776 58.9968C24.5245 58.9968 22.6028 56.9105 22.6028 54.3881ZM30.3246 54.3881V54.3628C30.3246 52.6211 29.0571 51.1733 27.2776 51.1733C25.4981 51.1733 24.2559 52.5958 24.2559 54.3375V54.3628C24.2559 56.1045 25.5233 57.5522 27.3029 57.5522C29.0824 57.5522 30.3246 56.1298 30.3246 54.3881Z" fill="#FCFCFF"/>
<path d="M33.8835 49.8804H35.5619L38.2897 54.1193L41.0174 49.8804H42.6958V58.845H41.1217V52.4155L38.2928 56.6417H38.2423L35.4387 52.4408V58.845H33.8899V49.8804H33.8835Z" fill="#FCFCFF"/>
<path d="M44.6018 54.3881V54.3628C44.6018 51.8403 46.5488 49.7256 49.3019 49.7256C52.0549 49.7256 53.9767 51.8118 53.9767 54.3343V54.3596C53.9767 56.8821 52.0297 58.9968 49.2766 58.9968C46.5236 58.9968 44.6018 56.9105 44.6018 54.3881ZM52.3236 54.3881V54.3628C52.3236 52.6211 51.0561 51.1733 49.2766 51.1733C47.4971 51.1733 46.2549 52.5958 46.2549 54.3375V54.3628C46.2549 56.1045 47.5224 57.5522 49.3019 57.5522C51.0814 57.5522 52.3236 56.1298 52.3236 54.3881Z" fill="#FCFCFF"/>
<path d="M57.5957 51.3408H54.7542V49.8804H62.0271V51.3408H59.1856V58.845H57.5989V51.3408H57.5957Z" fill="#FCFCFF"/>
<path d="M62.8079 54.3881V54.3628C62.8079 51.8403 64.7549 49.7256 67.5079 49.7256C70.261 49.7256 72.1828 51.8118 72.1828 54.3343V54.3596C72.1828 56.8821 70.2357 58.9968 67.4827 58.9968C64.7296 58.9968 62.8079 56.9105 62.8079 54.3881ZM70.5297 54.3881V54.3628C70.5297 52.6211 69.2622 51.1733 67.4827 51.1733C65.7031 51.1733 64.461 52.5958 64.461 54.3375V54.3628C64.461 56.1045 65.7284 57.5522 67.5079 57.5522C69.2875 57.5522 70.5297 56.1298 70.5297 54.3881Z" fill="#FCFCFF"/>
<path d="M74.0889 49.8804H78.0841C79.2093 49.8804 80.0944 50.2123 80.6696 50.7781C81.1437 51.2649 81.4124 51.9319 81.4124 52.7126V52.7379C81.4124 54.2109 80.5274 55.0929 79.2726 55.4532L81.6937 58.8481H79.8383L77.6353 55.7251H75.6629V58.8481H74.0889V49.8835V49.8804ZM77.9672 54.3247C79.0956 54.3247 79.8099 53.7368 79.8099 52.8264V52.8011C79.8099 51.8402 79.1177 51.3155 77.9545 51.3155H75.6629V54.3247H77.9672Z" fill="#FCFCFF"/>
<path d="M86.5201 49.8174H87.9804L91.925 58.8452H90.2593L89.349 56.6799H85.1104L84.1874 58.8452H82.5754L86.5201 49.8174ZM88.7737 55.2859L87.225 51.7013L85.6888 55.2859H88.7737Z" fill="#FCFCFF"/>
<path d="M99.9377 55.311L96.3787 49.8804H98.234L100.744 53.8506L103.279 49.8804H105.083L101.524 55.273V58.845H99.9377V55.311Z" fill="#FCFCFF"/>
<path d="M110.308 49.8804H113.842C115.928 49.8804 117.249 51.0721 117.249 52.877V52.9023C117.249 54.9127 115.637 55.9621 113.665 55.9621H111.885V58.845H110.311V49.8804H110.308ZM113.715 54.5428C114.907 54.5428 115.65 53.8759 115.65 52.9434V52.9181C115.65 51.8686 114.894 51.3186 113.715 51.3186H111.885V54.546H113.715V54.5428Z" fill="#FCFCFF"/>
<path d="M118.861 49.8804H122.857C123.982 49.8804 124.867 50.2123 125.442 50.7781C125.916 51.2649 126.185 51.9319 126.185 52.7126V52.7379C126.185 54.2109 125.3 55.0929 124.045 55.4532L126.466 58.8481H124.611L122.408 55.7251H120.435V58.8481H118.861V49.8835V49.8804ZM122.74 54.3247C123.868 54.3247 124.582 53.7368 124.582 52.8264V52.8011C124.582 51.8402 123.89 51.3155 122.727 51.3155H120.435V54.3247H122.74Z" fill="#FCFCFF"/>
<path d="M127.721 54.3881V54.3628C127.721 51.8403 129.668 49.7256 132.421 49.7256C135.174 49.7256 137.096 51.8118 137.096 54.3343V54.3596C137.096 56.8821 135.149 58.9968 132.396 58.9968C129.643 58.9968 127.721 56.9105 127.721 54.3881ZM135.443 54.3881V54.3628C135.443 52.6211 134.175 51.1733 132.396 51.1733C130.616 51.1733 129.374 52.5958 129.374 54.3375V54.3628C129.374 56.1045 130.642 57.5522 132.421 57.5522C134.201 57.5522 135.443 56.1298 135.443 54.3881Z" fill="#FCFCFF"/>
<path d="M140.87 55.311L137.311 49.8804H139.166L141.676 53.8506L144.211 49.8804H146.016L142.457 55.273V58.845H140.87V55.311Z" fill="#FCFCFF"/>
<path d="M147.4 49.8804H154.047V51.2902H148.977V53.6198H153.472V55.0296H148.977V57.4383H154.113V58.8481H147.403V49.8835L147.4 49.8804Z" fill="#FCFCFF"/>
<path d="M155.583 54.3881V54.3628C155.583 51.815 157.492 49.7256 160.204 49.7256C161.857 49.7256 162.856 50.3009 163.713 51.1227L162.701 52.2892C161.984 51.6222 161.216 51.1765 160.192 51.1765C158.475 51.1765 157.233 52.5863 157.233 54.3406V54.3659C157.233 56.1203 158.475 57.5554 160.192 57.5554C161.292 57.5554 161.996 57.1065 162.765 56.389L163.776 57.4131C162.84 58.3867 161.816 59 160.138 59C157.527 59 155.58 56.9643 155.58 54.3912L155.583 54.3881Z" fill="#FCFCFF"/>
<path d="M167.632 51.3408H164.791V49.8804H172.064V51.3408H169.222V58.845H167.635V51.3408H167.632Z" fill="#FCFCFF"/>
<path d="M172.841 54.3881V54.3628C172.841 51.8403 174.788 49.7256 177.541 49.7256C180.294 49.7256 182.216 51.8118 182.216 54.3343V54.3596C182.216 56.8821 180.269 58.9968 177.516 58.9968C174.763 58.9968 172.841 56.9105 172.841 54.3881ZM180.563 54.3881V54.3628C180.563 52.6211 179.296 51.1733 177.516 51.1733C175.737 51.1733 174.494 52.5958 174.494 54.3375V54.3628C174.494 56.1045 175.762 57.5522 177.541 57.5522C179.321 57.5522 180.563 56.1298 180.563 54.3881Z" fill="#FCFCFF"/>
<path d="M183.455 57.5365L184.403 56.4112C185.26 57.154 186.12 57.5776 187.232 57.5776C188.206 57.5776 188.819 57.1288 188.819 56.4523V56.427C188.819 55.7853 188.462 55.4408 186.796 55.0551C184.887 54.5936 183.812 54.031 183.812 52.3778V52.3525C183.812 50.8162 185.092 49.7542 186.872 49.7542C188.177 49.7542 189.214 50.1524 190.124 50.8795L189.28 52.0712C188.474 51.4706 187.668 51.1482 186.847 51.1482C185.924 51.1482 185.386 51.6223 185.386 52.2102V52.2355C185.386 52.9278 185.797 53.2344 187.51 53.6453C189.407 54.1068 190.393 54.7865 190.393 56.269V56.2943C190.393 57.9727 189.075 58.9716 187.191 58.9716C185.822 58.9716 184.527 58.4975 183.452 57.5365H183.455Z" fill="#FCFCFF"/>
</svg>
