<svg width="35" height="35" viewBox="0 0 35 35" fill="none" xmlns="http://www.w3.org/2000/svg">
<circle cx="17.75" cy="17.25" r="17.25" fill="#5E5E5E"/>
<path d="M21.5 9.75H14C11.9289 9.75 10.25 11.4289 10.25 13.5V21C10.25 23.0711 11.9289 24.75 14 24.75H21.5C23.5711 24.75 25.25 23.0711 25.25 21V13.5C25.25 11.4289 23.5711 9.75 21.5 9.75Z" stroke="white" stroke-width="1.5" stroke-linecap="round" stroke-linejoin="round"/>
<path d="M20.75 16.7775C20.8426 17.4017 20.7359 18.0391 20.4453 18.5992C20.1547 19.1593 19.6949 19.6135 19.1312 19.8972C18.5676 20.1809 17.9288 20.2797 17.3058 20.1794C16.6828 20.0792 16.1073 19.785 15.6611 19.3389C15.2149 18.8927 14.9208 18.3171 14.8205 17.6941C14.7203 17.0711 14.819 16.4324 15.1027 15.8688C15.3864 15.3051 15.8406 14.8453 16.4007 14.5547C16.9608 14.264 17.5983 14.1574 18.2225 14.25C18.8592 14.3444 19.4486 14.6411 19.9038 15.0962C20.3589 15.5513 20.6556 16.1408 20.75 16.7775Z" stroke="white" stroke-width="1.5" stroke-linecap="round" stroke-linejoin="round"/>
<path d="M21.875 13.125H21.8825" stroke="white" stroke-width="1.5" stroke-linecap="round" stroke-linejoin="round"/>
</svg>
