<svg width="35" height="35" viewBox="0 0 35 35" fill="none" xmlns="http://www.w3.org/2000/svg">
<circle cx="17.25" cy="17.25" r="17.25" fill="#5E5E5E"/>
<path d="M23.141 11.6637C21.668 10.1871 19.7062 9.375 17.6215 9.375C13.3184 9.375 9.8168 12.8766 9.8168 17.1797C9.8168 18.5543 10.1754 19.8973 10.8574 21.082L9.75 25.125L13.8879 24.0387C15.027 24.6609 16.3102 24.9879 17.618 24.9879H17.6215C21.9211 24.9879 25.5 21.4863 25.5 17.1832C25.5 15.0984 24.6141 13.1402 23.141 11.6637V11.6637ZM17.6215 23.673C16.4543 23.673 15.3117 23.3602 14.3168 22.7695L14.0812 22.6289L11.6273 23.2723L12.2812 20.8781L12.1266 20.632C11.4762 19.5984 11.1352 18.4066 11.1352 17.1797C11.1352 13.6043 14.0461 10.6934 17.625 10.6934C19.3582 10.6934 20.9859 11.3684 22.2094 12.5953C23.4328 13.8223 24.1852 15.45 24.1816 17.1832C24.1816 20.7621 21.1969 23.673 17.6215 23.673V23.673ZM21.1793 18.8145C20.9859 18.716 20.0262 18.2449 19.8469 18.1816C19.6676 18.1148 19.5375 18.0832 19.4074 18.2801C19.2773 18.477 18.9047 18.9129 18.7887 19.0465C18.6762 19.1766 18.5602 19.1941 18.3668 19.0957C17.2207 18.5227 16.4684 18.0727 15.7125 16.7754C15.5121 16.4309 15.9129 16.4555 16.2855 15.7102C16.3488 15.5801 16.3172 15.4676 16.268 15.3691C16.2187 15.2707 15.8285 14.3109 15.6668 13.9207C15.5086 13.541 15.3469 13.5938 15.2273 13.5867C15.1148 13.5797 14.9848 13.5797 14.8547 13.5797C14.7246 13.5797 14.5137 13.6289 14.3344 13.8223C14.1551 14.0191 13.6523 14.4902 13.6523 15.45C13.6523 16.4098 14.352 17.3379 14.4469 17.468C14.5453 17.598 15.8215 19.5668 17.7797 20.4141C19.0172 20.9484 19.5023 20.9941 20.1211 20.9027C20.4973 20.8465 21.2742 20.4316 21.4359 19.9746C21.5977 19.5176 21.5977 19.1273 21.5484 19.0465C21.5027 18.9586 21.3727 18.9094 21.1793 18.8145Z" fill="white"/>
</svg>
